<?xml version="1.0" encoding="UTF-8" standalone="no"?>
<!DOCTYPE svg PUBLIC "-//W3C//DTD SVG 1.1//EN"
 "http://www.w3.org/Graphics/SVG/1.1/DTD/svg11.dtd">
<!-- Generated by graphviz version 2.44.0 (20200408.0750)
 -->
<!-- Title: dependency&#45;cruiser output Pages: 1 -->
<svg width="341pt" height="214pt"
 viewBox="0.00 0.00 341.03 214.00" xmlns="http://www.w3.org/2000/svg" xmlns:xlink="http://www.w3.org/1999/xlink">
<g id="graph0" class="graph" transform="scale(1 1) rotate(0) translate(4 210)">
<title>dependency&#45;cruiser output</title>
<polygon fill="white" stroke="transparent" points="-4,4 -4,-210 337.03,-210 337.03,4 -4,4"/>
<g id="clust1" class="cluster">
<title>cluster_client</title>
<path fill="#ffffff" stroke="black" stroke-width="2" d="M20,-8C20,-8 313.03,-8 313.03,-8 319.03,-8 325.03,-14 325.03,-20 325.03,-20 325.03,-186 325.03,-186 325.03,-192 319.03,-198 313.03,-198 313.03,-198 20,-198 20,-198 14,-198 8,-192 8,-186 8,-186 8,-20 8,-20 8,-14 14,-8 20,-8"/>
<text text-anchor="middle" x="166.51" y="-185.9" font-family="Helvetica,sans-Serif" font-weight="bold" font-size="9.00">client</text>
</g>
<g id="clust2" class="cluster">
<title>cluster_client/src</title>
<path fill="#ffffff" stroke="black" stroke-width="2" d="M28,-42C28,-42 305.03,-42 305.03,-42 311.03,-42 317.03,-48 317.03,-54 317.03,-54 317.03,-159 317.03,-159 317.03,-165 311.03,-171 305.03,-171 305.03,-171 28,-171 28,-171 22,-171 16,-165 16,-159 16,-159 16,-54 16,-54 16,-48 22,-42 28,-42"/>
<text text-anchor="middle" x="166.51" y="-158.9" font-family="Helvetica,sans-Serif" font-weight="bold" font-size="9.00">src</text>
</g>
<g id="clust3" class="cluster">
<title>cluster_client/src/handlers</title>
<path fill="#ffffff" stroke="black" stroke-width="2" d="M238.01,-60C238.01,-60 297.03,-60 297.03,-60 303.03,-60 309.03,-66 309.03,-72 309.03,-72 309.03,-132 309.03,-132 309.03,-138 303.03,-144 297.03,-144 297.03,-144 238.01,-144 238.01,-144 232.01,-144 226.01,-138 226.01,-132 226.01,-132 226.01,-72 226.01,-72 226.01,-66 232.01,-60 238.01,-60"/>
<text text-anchor="middle" x="267.52" y="-131.9" font-family="Helvetica,sans-Serif" font-weight="bold" font-size="9.00">handlers</text>
</g>
<g id="clust4" class="cluster">
<title>cluster_client/src/init</title>
<path fill="#ffffff" stroke="black" stroke-width="2" d="M36,-60C36,-60 82,-60 82,-60 88,-60 94,-66 94,-72 94,-72 94,-101 94,-101 94,-107 88,-113 82,-113 82,-113 36,-113 36,-113 30,-113 24,-107 24,-101 24,-101 24,-72 24,-72 24,-66 30,-60 36,-60"/>
<text text-anchor="middle" x="59" y="-100.9" font-family="Helvetica,sans-Serif" font-weight="bold" font-size="9.00">init</text>
</g>
<g id="clust5" class="cluster">
<title>cluster_client/src/listeners</title>
<path fill="#ffffff" stroke="black" stroke-width="2" d="M114,-60C114,-60 206.01,-60 206.01,-60 212.01,-60 218.01,-66 218.01,-72 218.01,-72 218.01,-132 218.01,-132 218.01,-138 212.01,-144 206.01,-144 206.01,-144 114,-144 114,-144 108,-144 102,-138 102,-132 102,-132 102,-72 102,-72 102,-66 108,-60 114,-60"/>
<text text-anchor="middle" x="160.01" y="-131.9" font-family="Helvetica,sans-Serif" font-weight="bold" font-size="9.00">listeners</text>
</g>
<!-- client/data.js -->
<g id="node1" class="node">
<title>client/data.js</title>
<g id="a_node1"><a xlink:href="../client/data.js" xlink:title="data.js">
<path fill="#ccffcc" stroke="black" d="M79.8,-34.3C79.8,-34.3 38.2,-34.3 38.2,-34.3 35.1,-34.3 32,-31.2 32,-28.1 32,-28.1 32,-21.9 32,-21.9 32,-18.8 35.1,-15.7 38.2,-15.7 38.2,-15.7 79.8,-15.7 79.8,-15.7 82.9,-15.7 86,-18.8 86,-21.9 86,-21.9 86,-28.1 86,-28.1 86,-31.2 82.9,-34.3 79.8,-34.3"/>
<text text-anchor="middle" x="59" y="-22.3" font-family="Helvetica,sans-Serif" font-size="9.00">data.js</text>
</a>
</g>
</g>
<!-- client/src/handlers/add&#45;item.js -->
<g id="node2" class="node">
<title>client/src/handlers/add&#45;item.js</title>
<g id="a_node2"><a xlink:href="../client/src/handlers/add-item.js" xlink:title="add&#45;item.js">
<path fill="#ffffcc" stroke="black" d="M291.32,-86.3C291.32,-86.3 243.72,-86.3 243.72,-86.3 240.62,-86.3 237.52,-83.2 237.52,-80.1 237.52,-80.1 237.52,-73.9 237.52,-73.9 237.52,-70.8 240.62,-67.7 243.72,-67.7 243.72,-67.7 291.32,-67.7 291.32,-67.7 294.42,-67.7 297.52,-70.8 297.52,-73.9 297.52,-73.9 297.52,-80.1 297.52,-80.1 297.52,-83.2 294.42,-86.3 291.32,-86.3"/>
<text text-anchor="middle" x="267.52" y="-74.3" font-family="Helvetica,sans-Serif" font-size="9.00">add&#45;item.js</text>
</a>
</g>
</g>
<!-- client/src/handlers/nightmode.js -->
<g id="node3" class="node">
<title>client/src/handlers/nightmode.js</title>
<g id="a_node3"><a xlink:href="../client/src/handlers/nightmode.js" xlink:title="nightmode.js">
<path fill="#ffffcc" stroke="black" d="M294.83,-117.3C294.83,-117.3 240.21,-117.3 240.21,-117.3 237.11,-117.3 234.01,-114.2 234.01,-111.1 234.01,-111.1 234.01,-104.9 234.01,-104.9 234.01,-101.8 237.11,-98.7 240.21,-98.7 240.21,-98.7 294.83,-98.7 294.83,-98.7 297.93,-98.7 301.03,-101.8 301.03,-104.9 301.03,-104.9 301.03,-111.1 301.03,-111.1 301.03,-114.2 297.93,-117.3 294.83,-117.3"/>
<text text-anchor="middle" x="267.52" y="-105.3" font-family="Helvetica,sans-Serif" font-size="9.00">nightmode.js</text>
</a>
</g>
</g>
<!-- client/src/init/index.js -->
<g id="node4" class="node">
<title>client/src/init/index.js</title>
<g id="a_node4"><a xlink:href="../client/src/init/index.js" xlink:title="index.js">
<path fill="#ffffcc" stroke="black" d="M79.8,-86.3C79.8,-86.3 38.2,-86.3 38.2,-86.3 35.1,-86.3 32,-83.2 32,-80.1 32,-80.1 32,-73.9 32,-73.9 32,-70.8 35.1,-67.7 38.2,-67.7 38.2,-67.7 79.8,-67.7 79.8,-67.7 82.9,-67.7 86,-70.8 86,-73.9 86,-73.9 86,-80.1 86,-80.1 86,-83.2 82.9,-86.3 79.8,-86.3"/>
<text text-anchor="middle" x="59" y="-74.3" font-family="Helvetica,sans-Serif" font-size="9.00">index.js</text>
</a>
</g>
</g>
<!-- client/src/init/index.js&#45;&gt;client/src/handlers/add&#45;item.js -->
<g id="edge1" class="edge">
<title>client/src/init/index.js&#45;&gt;client/src/handlers/add&#45;item.js</title>
<path fill="none" stroke="#000000" stroke-width="2" stroke-opacity="0.200000" d="M86.07,-68.14C88.82,-66.88 91.51,-65.5 94,-64 98.05,-61.56 97.58,-58.66 102,-57 150.27,-38.86 167.44,-46.98 218.01,-57 226.42,-58.66 235.19,-61.8 242.93,-65.11"/>
<polygon fill="#000000" fill-opacity="0.200000" stroke="#000000" stroke-width="2" stroke-opacity="0.200000" points="242.29,-67.12 248.62,-67.65 244,-63.29 242.29,-67.12"/>
</g>
<!-- client/src/listeners/add&#45;button&#45;listener.js -->
<g id="node5" class="node">
<title>client/src/listeners/add&#45;button&#45;listener.js</title>
<g id="a_node5"><a xlink:href="../client/src/listeners/add-button-listener.js" xlink:title="add&#45;button&#45;listener.js">
<path fill="#ffffcc" stroke="black" d="M203.82,-86.3C203.82,-86.3 116.19,-86.3 116.19,-86.3 113.09,-86.3 109.99,-83.2 109.99,-80.1 109.99,-80.1 109.99,-73.9 109.99,-73.9 109.99,-70.8 113.09,-67.7 116.19,-67.7 116.19,-67.7 203.82,-67.7 203.82,-67.7 206.92,-67.7 210.02,-70.8 210.02,-73.9 210.02,-73.9 210.02,-80.1 210.02,-80.1 210.02,-83.2 206.92,-86.3 203.82,-86.3"/>
<text text-anchor="middle" x="160.01" y="-74.3" font-family="Helvetica,sans-Serif" font-size="9.00">add&#45;button&#45;listener.js</text>
</a>
</g>
</g>
<!-- client/src/init/index.js&#45;&gt;client/src/listeners/add&#45;button&#45;listener.js -->
<g id="edge2" class="edge">
<title>client/src/init/index.js&#45;&gt;client/src/listeners/add&#45;button&#45;listener.js</title>
<path fill="none" stroke="#000000" stroke-width="2" stroke-opacity="0.200000" d="M86.01,-77C91.51,-77 97.52,-77 103.64,-77"/>
<polygon fill="#000000" fill-opacity="0.200000" stroke="#000000" stroke-width="2" stroke-opacity="0.200000" points="103.79,-79.1 109.79,-77 103.79,-74.9 103.79,-79.1"/>
</g>
<!-- client/src/listeners/nightmode&#45;listener.js -->
<g id="node6" class="node">
<title>client/src/listeners/nightmode&#45;listener.js</title>
<g id="a_node6"><a xlink:href="../client/src/listeners/nightmode-listener.js" xlink:title="nightmode&#45;listener.js">
<path fill="#ffffcc" stroke="black" d="M203.31,-117.3C203.31,-117.3 116.7,-117.3 116.7,-117.3 113.6,-117.3 110.5,-114.2 110.5,-111.1 110.5,-111.1 110.5,-104.9 110.5,-104.9 110.5,-101.8 113.6,-98.7 116.7,-98.7 116.7,-98.7 203.31,-98.7 203.31,-98.7 206.42,-98.7 209.52,-101.8 209.52,-104.9 209.52,-104.9 209.52,-111.1 209.52,-111.1 209.52,-114.2 206.42,-117.3 203.31,-117.3"/>
<text text-anchor="middle" x="160.01" y="-105.3" font-family="Helvetica,sans-Serif" font-size="9.00">nightmode&#45;listener.js</text>
</a>
</g>
</g>
<!-- client/src/init/index.js&#45;&gt;client/src/listeners/nightmode&#45;listener.js -->
<g id="edge3" class="edge">
<title>client/src/init/index.js&#45;&gt;client/src/listeners/nightmode&#45;listener.js</title>
<path fill="none" stroke="#000000" stroke-width="2" stroke-opacity="0.200000" d="M85.22,-86.33C90.73,-88.27 96.54,-90.26 102,-92 107.25,-93.67 112.8,-95.35 118.3,-96.95"/>
<polygon fill="#000000" fill-opacity="0.200000" stroke="#000000" stroke-width="2" stroke-opacity="0.200000" points="117.88,-99.01 124.22,-98.65 119.04,-94.97 117.88,-99.01"/>
</g>
<!-- client/src/listeners/add&#45;button&#45;listener.js&#45;&gt;client/src/handlers/add&#45;item.js -->
<g id="edge4" class="edge">
<title>client/src/listeners/add&#45;button&#45;listener.js&#45;&gt;client/src/handlers/add&#45;item.js</title>
<path fill="none" stroke="#000000" stroke-width="2" stroke-opacity="0.200000" d="M210.06,-77C217.23,-77 224.49,-77 231.31,-77"/>
<polygon fill="#000000" fill-opacity="0.200000" stroke="#000000" stroke-width="2" stroke-opacity="0.200000" points="231.43,-79.1 237.43,-77 231.43,-74.9 231.43,-79.1"/>
</g>
<!-- client/src/listeners/nightmode&#45;listener.js&#45;&gt;client/src/handlers/nightmode.js -->
<g id="edge5" class="edge">
<title>client/src/listeners/nightmode&#45;listener.js&#45;&gt;client/src/handlers/nightmode.js</title>
<path fill="none" stroke="#000000" stroke-width="2" stroke-opacity="0.200000" d="M209.75,-108C215.78,-108 221.87,-108 227.72,-108"/>
<polygon fill="#000000" fill-opacity="0.200000" stroke="#000000" stroke-width="2" stroke-opacity="0.200000" points="227.96,-110.1 233.96,-108 227.96,-105.9 227.96,-110.1"/>
</g>
</g>
</svg>
